<?xml version="1.0" encoding="UTF-8"?>
<svg id="Layer_1" xmlns="http://www.w3.org/2000/svg" version="1.1" viewBox="0 0 64 64">
  <!-- Generator: Adobe Illustrator 30.1.0, SVG Export Plug-In . SVG Version: 2.1.1 Build 136)  -->
  <defs>
    <style>
      .st0 {
        fill: #fff;
      }

      .st1 {
        fill: #1a833b;
      }

      .st2 {
        fill: #00509c;
      }
    </style>
  </defs>
  <g>
    <path class="st1" d="M50.57,0H13.45c-1.87,0-3.37,1.51-3.37,3.37v22.76c2.92-2.23,6.56-5.32,13.13-3.69,5.67,1.4,6.91,5.76,15.87,10.73,5.48,3.04,10.64.69,14.85-1.76V3.37c0-1.87-1.51-3.37-3.37-3.37"/>
    <path class="st2" d="M41.95,43.32c-1.68-.21-3.29-.83-4.69-1.79-3.15-1.95-6.15-5.11-12.55-8.43-5.11-2.48-10.08-.59-14.64,2.01h0v25.51c0,1.87,1.51,3.37,3.37,3.37h37.11c1.87,0,3.37-1.51,3.37-3.37v-20.8c-3.96,2.27-7.76,4.12-11.96,3.49"/>
  </g>
  <rect class="st0" x="0" y="37.31" width="64" height="21.33" rx="2.41" ry="2.41"/>
  <rect class="st0" x="72.73" y="32.98" width="1.95" height="1.95"/>
  <g>
    <path d="M4.77,50.47l4.41-.28c.1.72.29,1.26.58,1.64.48.61,1.16.91,2.05.91.66,0,1.17-.16,1.53-.47.36-.31.54-.67.54-1.08,0-.39-.17-.74-.51-1.04-.34-.31-1.13-.6-2.38-.87-2.03-.46-3.48-1.07-4.35-1.82-.87-.76-1.31-1.72-1.31-2.9,0-.77.22-1.5.67-2.19.45-.69,1.12-1.23,2.02-1.62.9-.39,2.13-.59,3.69-.59,1.92,0,3.38.36,4.39,1.07,1.01.71,1.61,1.85,1.8,3.4l-4.37.26c-.12-.68-.36-1.17-.73-1.47-.37-.31-.89-.46-1.54-.46-.54,0-.95.11-1.22.34s-.41.51-.41.83c0,.24.11.45.34.65.22.2.74.38,1.56.55,2.03.44,3.48.88,4.36,1.33s1.52,1,1.92,1.66c.4.66.6,1.4.6,2.22,0,.96-.27,1.85-.8,2.66-.53.81-1.28,1.43-2.23,1.85s-2.16.63-3.61.63c-2.55,0-4.32-.49-5.3-1.47-.98-.98-1.54-2.23-1.67-3.75Z"/>
    <path d="M20.14,47.94c0-2.45.68-4.36,2.05-5.72s3.27-2.05,5.7-2.05,4.42.67,5.77,2.01c1.35,1.34,2.03,3.22,2.03,5.64,0,1.75-.29,3.19-.89,4.32-.59,1.12-1.44,2-2.56,2.62-1.12.62-2.51.94-4.17.94s-3.09-.27-4.2-.81c-1.11-.54-2.01-1.39-2.7-2.56-.69-1.17-1.03-2.63-1.03-4.38ZM24.78,47.96c0,1.52.28,2.6.84,3.27.56.66,1.33.99,2.3.99s1.77-.32,2.31-.97c.55-.65.82-1.81.82-3.49,0-1.41-.29-2.45-.85-3.1-.57-.65-1.34-.98-2.32-.98s-1.69.33-2.25.99c-.57.66-.85,1.76-.85,3.29Z"/>
    <path d="M37.38,50.47l4.41-.28c.1.72.29,1.26.58,1.64.48.61,1.16.91,2.05.91.66,0,1.17-.16,1.53-.47.36-.31.54-.67.54-1.08,0-.39-.17-.74-.51-1.04-.34-.31-1.13-.6-2.38-.87-2.03-.46-3.48-1.07-4.35-1.82-.87-.76-1.31-1.72-1.31-2.9,0-.77.22-1.5.67-2.19.45-.69,1.12-1.23,2.02-1.62s2.13-.59,3.69-.59c1.92,0,3.38.36,4.39,1.07s1.61,1.85,1.8,3.4l-4.37.26c-.12-.68-.36-1.17-.73-1.47-.37-.31-.89-.46-1.54-.46-.54,0-.95.11-1.22.34-.27.23-.41.51-.41.83,0,.24.11.45.34.65.22.2.74.38,1.56.55,2.03.44,3.48.88,4.36,1.33s1.52,1,1.92,1.66.6,1.4.6,2.22c0,.96-.27,1.85-.8,2.66-.53.81-1.28,1.43-2.23,1.85-.96.42-2.16.63-3.61.63-2.55,0-4.32-.49-5.3-1.47s-1.54-2.23-1.67-3.75Z"/>
    <path d="M53.52,40.42h4.65v15.01h-4.65v-15.01Z"/>
  </g>
</svg>