<?xml version="1.0" encoding="UTF-8"?>
<svg id="Layer_1" xmlns="http://www.w3.org/2000/svg" version="1.1" viewBox="0 0 64 64">
  <!-- Generator: Adobe Illustrator 30.1.0, SVG Export Plug-In . SVG Version: 2.1.1 Build 136)  -->
  <defs>
    <style>
      .st0 {
        fill: #fff;
      }

      .st1 {
        fill: #1a833b;
      }

      .st2 {
        fill: #00509c;
      }
    </style>
  </defs>
  <g>
    <rect class="st0" x="17.8" y="11.1" width="26.6" height="18.4"/>
    <path class="st1" d="M42.3,0h-22.5c-1.1,0-2,.9-2,2v13.8c1.8-1.4,4-3.2,8-2.2,3.4.8,4.2,3.5,9.6,6.5,3.3,1.8,6.5.4,9-1.1V2c0-1.1-.9-2-2-2"/>
    <path class="st2" d="M37.1,26.3c-1-.1-2-.5-2.8-1.1-1.9-1.2-3.7-3.1-7.6-5.1-3.1-1.5-6.1-.4-8.9,1.2h0v15.5c0,1.1.9,2,2,2h22.5c1.1,0,2-.9,2-2v-12.6c-2.4,1.4-4.7,2.5-7.3,2.1"/>
  </g>
  <rect class="st0" x="72.7" y="33" width="1.9" height="2"/>
  <g>
    <path d="M11.6,58.8v-.8h1.6v.7c0,1.8,1.3,3.2,3.4,3.2s3.4-1.3,3.4-3.2-.8-2.9-3.9-4.2c-3.5-1.6-4.3-3-4.3-5.3s1.8-4.6,4.9-4.6,4.9,1.8,4.9,4.6v.4h-1.6v-.4c0-1.8-1.2-3.2-3.3-3.2s-3.3,1.3-3.3,3.1.9,2.7,4,4.1c3.4,1.6,4.3,3,4.3,5.4s-1.8,4.7-5,4.7-4.9-1.9-4.9-4.6Z"/>
    <path d="M24.3,58.3v-8.6c0-3.3,1.8-5,5.1-5s5.1,1.8,5.1,5v8.6c0,3.3-1.8,5-5.1,5s-5.1-1.8-5.1-5ZM32.8,58.5v-8.9c0-2.3-1.2-3.5-3.5-3.5s-3.5,1.1-3.5,3.5v8.9c0,2.3,1.2,3.5,3.5,3.5s3.5-1.1,3.5-3.5Z"/>
    <path d="M37.1,58.8v-.8h1.6v.7c0,1.8,1.3,3.2,3.4,3.2s3.4-1.3,3.4-3.2-.8-2.9-3.9-4.2c-3.5-1.6-4.3-3-4.3-5.3s1.8-4.6,4.9-4.6,4.9,1.8,4.9,4.6v.4h-1.6v-.4c0-1.8-1.2-3.2-3.3-3.2s-3.3,1.3-3.3,3.1.9,2.7,4,4.1c3.4,1.6,4.3,3,4.3,5.4s-1.8,4.7-5,4.7-4.9-1.9-4.9-4.6Z"/>
    <path d="M50,44.9h1.7v18.2h-1.7v-18.2Z"/>
  </g>
</svg>